<?xml version="1.0" encoding="utf-8"?>
<!-- Generator: Adobe Illustrator 22.0.1, SVG Export Plug-In . SVG Version: 6.00 Build 0)  -->
<svg version="1.1" id="Layer_1" xmlns="http://www.w3.org/2000/svg" xmlns:xlink="http://www.w3.org/1999/xlink" x="0px" y="0px"
	 viewBox="0 0 1500 500" style="enable-background:new 0 0 1500 500;" xml:space="preserve">
<style type="text/css">
	.st0{fill:#FFFFFF;}
</style>
<g>
	<path class="st0" d="M1445.5,80.1c-28.2-28-69.1-41-123.6-41.3h0c-151.5,0.8-169,106.9-169,186.6c0,77.9-21.3,97.4-47,113.3
		c-3.7,2.3-6.2,5.9-7,10.2c-0.8,4.2,0.2,8.6,2.8,12c3.9,5.1,42.8,50,220.3,50c151.5,0,169.1-105.8,169.1-185.4
		C1491,158.1,1476.1,110.6,1445.5,80.1z"/>
	<g>
		<g>
			<path d="M1301.5,166.5v50.9c0,15.9-5.5,25.2-23.1,25.2c-17.4,0-22.9-9.4-22.9-25.2v-29.9c2.1,0.8,4.2,1.3,6.5,1.3
				c9.1,0,16.4-7.3,16.4-16.4c0-9.1-7.3-16.6-16.4-16.6c-2.1,0-3.9,0.3-5.7,1c2.3-9.9,8.6-15.9,22.1-15.9
				C1296.1,141.1,1301.5,150.9,1301.5,166.5z"/>
		</g>
		<g>
			<path d="M1393.5,166.5v50.9c0,15.9-5.5,25.2-23.1,25.2c-17.4,0-22.9-9.4-22.9-25.2v-29.9c2.1,0.8,4.2,1.3,6.5,1.3
				c9.1,0,16.4-7.3,16.4-16.4c0-9.1-7.3-16.6-16.4-16.6c-2.1,0-3.9,0.3-5.7,1c2.3-9.9,8.6-15.9,22.1-15.9
				C1388.1,141.1,1393.5,150.9,1393.5,166.5z"/>
		</g>
	</g>
	<g>
		<path class="st0" d="M14,246c0-12.8,6.4-22.2,19.9-22.2h63.3c12.3,0,18.1,8.7,18.1,17.6c0,8.7-6.1,17.6-18.1,17.6H52.3v37.3h41.9
			c12.5,0,18.6,8.7,18.6,17.6c0,8.7-6.4,17.6-18.6,17.6H52.3v38.8h47.2c12.3,0,18.1,8.7,18.1,17.6c0,8.7-6.1,17.6-18.1,17.6H33.7
			c-11.2,0-19.7-7.7-19.7-19.1V246z"/>
		<path class="st0" d="M137.1,288.6c0-12.3,7.7-20.4,18.4-20.4c10.2,0,16.1,5.6,18.4,15.3c6.9-11.2,21.2-16.9,35-16.9
			c39.6,0,59.2,37,59.2,72.7c0,34.7-23.5,69.2-60.5,69.2c-11.5,0-24-4.3-33.7-12.8v44.9c0,12.3-7.7,20.4-18.4,20.4
			c-10.7,0-18.4-8.2-18.4-20.4V288.6z M202.7,374.9c19.1,0,28.6-19.9,28.6-37c0-17.4-9.4-37.5-28.6-37.5
			c-19.7,0-28.8,18.4-28.8,36.2C173.8,354.5,182.5,374.9,202.7,374.9z"/>
		<path class="st0" d="M327.9,233.2c0,11.5-9.2,21.2-20.7,21.2c-11,0-20.7-10-20.7-21.2c0-10.5,9.7-20.2,20.7-20.2
			S327.9,222.5,327.9,233.2z M288.9,288.6c0-12.3,7.7-20.4,18.4-20.4c10.7,0,18.4,8.2,18.4,20.4v98c0,12.3-7.7,20.4-18.4,20.4
			c-10.7,0-18.4-8.2-18.4-20.4V288.6z"/>
		<path class="st0" d="M362.2,301.9H354c-10,0-16.1-6.1-16.1-16.1c0-9.2,6.9-16.1,16.1-16.1h8.2v-22c0-12.3,7.7-20.4,18.4-20.4
			s18.4,8.2,18.4,20.4v22h10.5c9.4,0,17.6,4.3,17.6,16.1c0,11.5-8.2,16.1-17.6,16.1H399v84.7c0,12.3-7.7,20.4-18.4,20.4
			s-18.4-8.2-18.4-20.4V301.9z"/>
		<path class="st0" d="M560.4,383.1c0,9.4,0,24-17.6,24c-10.7,0-15.1-5.9-17.6-15.6c-9.4,11.2-20.9,17.1-35,17.1
			c-34.5,0-60.8-29.4-60.8-70.7c0-40.3,27.1-71.2,60.8-71.2c13.5,0,26.8,5.4,35,16.9c1-8.9,8.7-15.3,17.6-15.3
			c17.6,0,17.6,14.6,17.6,24V383.1z M495.3,374.9c19.1,0,28.3-19.4,28.3-37s-8.9-37.5-28.3-37.5c-20.2,0-29.1,19.9-29.1,37.5
			S475.4,374.9,495.3,374.9z"/>
		<path class="st0" d="M588,288.6c0-12.3,7.7-20.4,18.4-20.4c10.2,0,16.1,5.6,18.4,15.3c6.9-11.2,21.2-16.9,35-16.9
			c39.6,0,59.2,37,59.2,72.7c0,34.7-23.5,69.2-60.5,69.2c-11.5,0-24-4.3-33.7-12.8v44.9c0,12.3-7.7,20.4-18.4,20.4
			c-10.7,0-18.4-8.2-18.4-20.4V288.6z M653.6,374.9c19.1,0,28.6-19.9,28.6-37c0-17.4-9.4-37.5-28.6-37.5
			c-19.7,0-28.8,18.4-28.8,36.2C624.8,354.5,633.5,374.9,653.6,374.9z"/>
		<path class="st0" d="M740.7,229.4c0-12.3,7.7-20.4,18.4-20.4c10.7,0,18.4,8.2,18.4,20.4v50h0.5c7.7-9.4,21.9-12.8,33.4-12.8
			c28.8,0,50.3,18.4,50.3,49.5v70.4c0,12.3-7.7,20.4-18.4,20.4c-10.7,0-18.4-8.2-18.4-20.4v-64.1c0-17.1-10.7-25.3-24-25.3
			c-15.1,0-23.5,11-23.5,25.3v64.1c0,12.3-7.7,20.4-18.4,20.4c-10.7,0-18.4-8.2-18.4-20.4V229.4z"/>
		<path class="st0" d="M927.2,233.2c0,11.5-9.2,21.2-20.7,21.2c-11,0-20.7-10-20.7-21.2c0-10.5,9.7-20.2,20.7-20.2
			C917.5,213.1,927.2,222.5,927.2,233.2z M888.2,288.6c0-12.3,7.7-20.4,18.4-20.4c10.7,0,18.4,8.2,18.4,20.4v98
			c0,12.3-7.7,20.4-18.4,20.4c-10.7,0-18.4-8.2-18.4-20.4V288.6z"/>
		<path class="st0" d="M1029,309.6c-6.9,0-20.9-10.7-32.9-10.7c-6.6,0-12.5,3.1-12.5,10.2c0,17.1,63.8,14.6,63.8,56.4
			c0,24.5-20.7,43.1-52.3,43.1c-20.7,0-51.3-11.7-51.3-28.3c0-5.6,5.6-16.3,15.8-16.3c14.3,0,20.7,12.5,38,12.5
			c11.2,0,14.6-3.6,14.6-10.5c0-16.8-63.8-14.3-63.8-56.4c0-25.5,20.7-42.9,49.8-42.9c18.1,0,45.9,8.4,45.9,26.5
			C1044,301.6,1037.6,309.6,1029,309.6z"/>
	</g>
</g>
</svg>
